# xmcd
#
# Track frame offsets: 
#        150
#        26883
#        45090
#        63273
#        80410
#        109472
#        126552
#        138699
#        157498
#
# Disc length: 2323 seconds
#
# Revision: 1
# Processed by: cddbd v1.5.2PL0 Copyright (c) Steve Scherf et al.
# Submitted via: ExactAudioCopy v0.99pb5
#
DISCID=85091109
DTITLE=The 44's - Boogie Disease (Featuring Kid Ramas)
DYEAR=2010
DGENRE=Blues
TTITLE0=Pull My Strings
TTITLE1=So Low Down
TTITLE2=Take It Easy
TTITLE3=Boogie Disease
TTITLE4=Commit A Crime
TTITLE5=Goin To The Church
TTITLE6=Blowin Like Hell
TTITLE7=Automatic
TTITLE8=Johnny Cochino
EXTD=
EXTT0=
EXTT1=
EXTT2=
EXTT3=
EXTT4=
EXTT5=
EXTT6=
EXTT7=
EXTT8=
PLAYORDER=
